<svg id="OBJECTS" xmlns="http://www.w3.org/2000/svg" viewBox="0 0 119.64 119.64"><defs><style>.cls-1{fill:#e6ab1c;}</style></defs><title>cornerborder</title><path class="cls-1" d="M-440,75.47a14.35,14.35,0,0,0-20.3,0,14.35,14.35,0,0,0,0,20.29,14.36,14.36,0,0,0,20.3,0A14.35,14.35,0,0,0-440,75.47Zm-2.62,17.67a10.65,10.65,0,0,1-15.06,0,10.65,10.65,0,0,1,0-15.06,10.65,10.65,0,0,1,15.06,0A10.65,10.65,0,0,1-442.59,93.14Z" transform="translate(464.55 -71.18)"/><path class="cls-1" d="M-459.26,101.27a21.4,21.4,0,0,0,11.92,3.37,19.55,19.55,0,0,0,11.45-4.8l2.38,2.38a33.55,33.55,0,0,1-10.82,5.59c-5.79,1.81-8,8.92-3.33,12s9.22-4.63,4-7.79c0,0,5.41.54,4.58,6.49s-9.73,6.32-12.72,2c-3.83-5.52.83-11.87.83-11.87S-458.54,105.61-459.26,101.27Z" transform="translate(464.55 -71.18)"/><path class="cls-1" d="M-464.55,99s3.33,9.16,8.56,10.61c0,0-7.84,6.93-8.56,13.74Z" transform="translate(464.55 -71.18)"/><path class="cls-1" d="M-456,115.34s-8.56,9-8.56,19.9c0,9.2,9.67,14.43,14.75,11.42s3.17-11.49-1.9-11.42c0,0,.95,5.63-4,5.47C-460.27,140.57-464.94,135.09-456,115.34Z" transform="translate(464.55 -71.18)"/><path class="cls-1" d="M-464.55,135.24v55.58s2.3-33.77,6.5-40.12c0,0-5.23-5.62-4.83-10.22S-464.55,135.24-464.55,135.24Z" transform="translate(464.55 -71.18)"/><path class="cls-1" d="M-435.85,142.93s-9.43,4.58-12-5.23c-2.4-9,7.06-20.22,15.07-17.52s6.22,11.46,3,13.16c-5.08,2.7-7.77.55-7.77.55s6.87-4.56,2.85-8.87c-2.95-3.17-9.69,2.86-10.38,6.9C-446.38,139.21-441.48,142.86-435.85,142.93Z" transform="translate(464.55 -71.18)"/><path class="cls-1" d="M-456,115.34s-1.54,9.54,1.55,13c0,0-4.8,3-6.86-1Z" transform="translate(464.55 -71.18)"/><path class="cls-1" d="M-439.85,121s11.93-6.72,11.57-13.49c0,0,2.8,3.82,1.55,7.88s-6.12,7.06-6.12,7.06Z" transform="translate(464.55 -71.18)"/><path class="cls-1" d="M-422.69,133.9s-5.27-3.54-4.42-8.49c1.09-6.34,9.71-5.42,11.88-4.91l7.62,7.62s-7.5-4.23-11.67-3.34C-424.12,125.82-424.71,128.9-422.69,133.9Z" transform="translate(464.55 -71.18)"/><path class="cls-1" d="M-423.4,112.33s.36,4.24-1,5.91c0,0,4.48-1.83,6.72-.18Z" transform="translate(464.55 -71.18)"/><path class="cls-1" d="M-433.27,110.19a2.34,2.34,0,0,1-2.34,2.34,2.34,2.34,0,0,1-2.34-2.34,2.34,2.34,0,0,1,2.34-2.34A2.34,2.34,0,0,1-433.27,110.19Z" transform="translate(464.55 -71.18)"/><path class="cls-1" d="M-435.61,138.81a2.34,2.34,0,0,1-2.34,2.34,2.34,2.34,0,0,1-2.34-2.34,2.34,2.34,0,0,1,2.34-2.34A2.34,2.34,0,0,1-435.61,138.81Z" transform="translate(464.55 -71.18)"/><path class="cls-1" d="M-434.46,76.48a21.35,21.35,0,0,1,3.37,11.91,19.55,19.55,0,0,1-4.8,11.45l2.38,2.38a33.55,33.55,0,0,0,5.59-10.82c1.8-5.79,8.92-8,11.95-3.33s-4.64,9.22-7.79,4c0,0,.54,5.41,6.48,4.58s6.33-9.73,2-12.72c-5.53-3.83-11.88.83-11.88.83S-430.12,77.19-434.46,76.48Z" transform="translate(464.55 -71.18)"/><path class="cls-1" d="M-436.72,71.18s9.16,3.33,10.6,8.57c0,0,6.94-7.85,13.75-8.57Z" transform="translate(464.55 -71.18)"/><path class="cls-1" d="M-420.39,79.75s9-8.57,19.9-8.57c9.2,0,14.43,9.68,11.42,14.75s-11.5,3.17-11.42-1.9c0,0,5.63,1,5.47-4C-395.16,75.47-400.65,70.79-420.39,79.75Z" transform="translate(464.55 -71.18)"/><path class="cls-1" d="M-400.49,71.18h55.58s-33.77,2.3-40.12,6.5c0,0-5.63-5.23-10.22-4.83S-400.49,71.18-400.49,71.18Z" transform="translate(464.55 -71.18)"/><path class="cls-1" d="M-392.8,99.88s4.58-9.43-5.23-12c-9-2.4-20.22,7.06-17.52,15.07s11.46,6.22,13.16,3c2.7-5.07.55-7.77.55-7.77s-4.56,6.87-8.87,2.85c-3.18-2.95,2.86-9.68,6.9-10.38C-396.52,89.35-392.88,94.25-392.8,99.88Z" transform="translate(464.55 -71.18)"/><path class="cls-1" d="M-420.39,79.75s9.54-1.55,13.05,1.54c0,0,3-4.8-1-6.86Z" transform="translate(464.55 -71.18)"/><path class="cls-1" d="M-414.78,95.88s-6.72,11.93-13.5,11.58c0,0,3.83,2.79,7.89,1.54s7.06-6.12,7.06-6.12Z" transform="translate(464.55 -71.18)"/><path class="cls-1" d="M-401.83,113s-3.54-5.27-8.49-4.42c-6.34,1.09-5.42,9.71-4.91,11.88l7.62,7.62s-4.23-7.5-3.34-11.67C-409.91,111.61-406.83,111-401.83,113Z" transform="translate(464.55 -71.18)"/><path class="cls-1" d="M-423.4,112.33s4.24.36,5.91-1c0,0-1.83,4.48-.18,6.72Z" transform="translate(464.55 -71.18)"/><path class="cls-1" d="M-425.54,102.46a2.34,2.34,0,0,0,2.34-2.34,2.34,2.34,0,0,0-2.34-2.34,2.34,2.34,0,0,0-2.34,2.34A2.34,2.34,0,0,0-425.54,102.46Z" transform="translate(464.55 -71.18)"/><path class="cls-1" d="M-396.92,100.12a2.34,2.34,0,0,0,2.34-2.34,2.34,2.34,0,0,0-2.34-2.34,2.34,2.34,0,0,0-2.34,2.34A2.34,2.34,0,0,0-396.92,100.12Z" transform="translate(464.55 -71.18)"/></svg>