<svg id="OBJECTS" xmlns="http://www.w3.org/2000/svg" viewBox="0 0 189.21 161.94"><defs><style>.cls-1{fill:#e6ab1c;}.cls-2{fill:#231f20;}</style></defs><title>logo</title><path class="cls-1" d="M155.09,71.06,155,71a4.56,4.56,0,0,0-2.08-.62,4.49,4.49,0,0,0-3.78,1.76,4.7,4.7,0,0,0-.86,1.85c0,.17-.06.35-.08.52s0,.29,0,.47a4.39,4.39,0,0,0,.08,1,4.23,4.23,0,0,0,2.16,3,3.71,3.71,0,0,1-1-3.12,3.84,3.84,0,0,1,.1-.51A4.09,4.09,0,0,0,152,78.6a4.3,4.3,0,0,0,1.57.31,4,4,0,0,0,1.55-.31,4.08,4.08,0,0,0,0-7.54Zm.88,4.78a2.61,2.61,0,0,1-1.43,1.43,2.64,2.64,0,1,1-1-5.08,2.56,2.56,0,0,1,1,.2A2.64,2.64,0,0,1,156,75.84Z" transform="translate(-10.93 -7.49)"/><path class="cls-1" d="M198.78,69.3,195.57,68l.19-.44a3,3,0,0,0-1.64-4L176.66,56.3a3,3,0,0,0-4,1.64l-.26.64-5.59-2.32a1.76,1.76,0,0,0-.09-1.06,1.79,1.79,0,0,0-3.31,0l-1.13,2.72a1.79,1.79,0,0,0,1,2.34,1.78,1.78,0,0,0,2.17-.69l5.6,2.33-6,14.54-2.66-1.1a8.82,8.82,0,0,0-2.92-7.08l1.24-3,1.41.59a1.87,1.87,0,0,0,.69.13,1.79,1.79,0,0,0,.69-3.44l-8.23-3.42a1.79,1.79,0,0,0-2.34,2.34,1.77,1.77,0,0,0,1,1l1.41.59L154,66a8.82,8.82,0,0,0-8.66,12.19,8.62,8.62,0,0,0,2.27,3.2l-1.17,2.81L141,81.94l-13.9,33.44,4.38,1.83-3.83,12.16,1.12.47-5.49,15,2,.83L132,131.18l1.12.47.38-.74.06,0a.57.57,0,0,1,0-.13L139,120.35l4.38,1.82,13.9-33.44-5.46-2.28,1.17-2.8.5,0a8.81,8.81,0,0,0,6.57-2.94l2.66,1.1-2.63,6.33a3,3,0,0,0,1.64,4l17.46,7.26a3.17,3.17,0,0,0,1.17.23,3.06,3.06,0,0,0,1.15-.23l.06,0h0a3.05,3.05,0,0,0,1.59-1.61l.18-.44,3.21,1.33a2.25,2.25,0,0,0,.84.17,2.3,2.3,0,0,0,.85-.17,2.17,2.17,0,0,0,1.19-1.19,2.21,2.21,0,0,0-1.19-2.89l-3.21-1.33,8.81-21.18,3.21,1.33a2.25,2.25,0,0,0,.84.17,2.21,2.21,0,0,0,.85-4.25Zm-71.22,68,2.54-6.91.57.24Zm60.56-66.09L175.47,66l2-4.85,12.65,5.26ZM163.83,58.92a.34.34,0,0,1-.19-.19.35.35,0,0,1,0-.27l1.12-2.72a.36.36,0,0,1,.33-.21.33.33,0,0,1,.33.21.38.38,0,0,1,0,.28l-1,2.38-.14.33a.34.34,0,0,1-.19.19A.35.35,0,0,1,163.83,58.92Zm2.22-.67.27-.65,5.55,2.31,0,.11-.23.54Zm-11.83,2.66a.35.35,0,0,1,0-.27.36.36,0,0,1,.33-.22.31.31,0,0,1,.13,0l8.23,3.42a.35.35,0,0,1,.19.46.36.36,0,0,1-.47.19l-8.22-3.42A.34.34,0,0,1,154.22,60.91Zm2.37,2.66,1.27.52a8.28,8.28,0,0,0-.3,2.88c-.21-.11-.42-.21-.64-.3a8.45,8.45,0,0,0-1.43-.45ZM148.81,82.3a9.12,9.12,0,0,0,1.16.61,7.88,7.88,0,0,0-.18,2.68l-.52-.21-1.48-.62Zm-3.59,30.54c1.21-3.38,2.89-7.13,4.48-10.68s3-6.91,4-9.44c.55-1,1-1.8,1.51-2.52l-11.52,27.72A48.79,48.79,0,0,1,145.22,112.84Zm-3.45-29,.63.26c-1.8,5.16-5,13.39-8.1,21.31-1.59,3.38-3.34,6.91-4.74,9.46l-.58-.24ZM131.12,115.5c.66-2.38,1.93-6,3.25-9.56,3-6.93,6.31-14.15,8.92-19.72-1.13,3.6-3,8.71-4.55,12.54,1.87-4.28,4.55-9.83,6.54-13.49L148,86.39l.53.22c-1.43,3.64-3.64,8.67-5.9,14-1.51,3.57-3,7.28-4.47,10.83-1.18,2.23-2.2,4.28-3,5.69l-3.21-1.34h0Zm4.14,3.28.31.12c0,.14-.06.3-.09.46-.92,2.19-2.93,7.47-4.29,9.93l-1.78-.74,3.4-10.79Zm23.17-38.41a9,9,0,0,0,1.67-6.54,4,4,0,0,0-.94-2.1c.7,1.29.3,2.91-.23,4.25a11.64,11.64,0,0,1-2.09,3.46l-.33.35-.19.19-.16.15a5.64,5.64,0,0,1-.77.56,6.68,6.68,0,0,1-1.88.79,7,7,0,0,1-2.81.19h0a7.4,7.4,0,1,1,9.67-4A7.31,7.31,0,0,1,158.43,80.37Zm3.26-2.15a9,9,0,0,0,.45-1.42l1.17.48c-.14.57-.19,1.27-.3,1.86a10.36,10.36,0,0,1-.29,1.12L161,79.55A8,8,0,0,0,161.69,78.22Zm-.23,11.72a1.55,1.55,0,0,1,0-1.23l1.23-3c-.71,1.36-1.38,2.68-2,3.91,1.48-3.25,3-6.87,4.52-10.54a5.61,5.61,0,0,0,.66-1.22l-.14-.05c.68-1.68,1.36-3.37,2-5,2.26-5.7,4.18-11.16,6.16-14.94,1-1.93,1.39-1.62,1.19-.32a1.39,1.39,0,0,1,.4-.06,1.67,1.67,0,0,1,.62.12l16.31,6.78v.07q-.19.42-.45,1.08l-15.25-6.34-3.12,7.5.9.38,1.16.7c.88.5,2,1.12,3.28,1.76-.68,2.08-2,5.87-2.73,8.69a37.34,37.34,0,0,1,3.74-8.19l.16.09c1.81.88,3.71,1.82,5.34,2.69a55.73,55.73,0,0,1-1.94,5.81c.71-1.59,1.72-3.55,2.59-5.07-.61,3.13-2.67,8.89-2.47,9s2.83-5.44,4.61-8.09l.05,0c-.5,1.23-1,2.52-1.58,3.84-1.33,3.23-2.71,6.62-4,9.76a4.43,4.43,0,0,0-6.12-4.33,4.45,4.45,0,0,0-2.42,5.81A4.49,4.49,0,0,0,176,91.66a4.75,4.75,0,0,0,.94.27,4.46,4.46,0,0,0,2.47-.24,5.31,5.31,0,0,0,1.69-1,4.33,4.33,0,0,1,.37-.27.38.38,0,0,1,.33,0,.68.68,0,0,1,.29.8,2.74,2.74,0,0,1-1.23,1.73c-.74,1.92-1.38,3.59-1.88,4.83L162.32,90.8A1.58,1.58,0,0,1,161.46,89.94Zm19.63-.9a3,3,0,0,1-5.57,0,3,3,0,0,1,1.64-3.93,3,3,0,0,1,2.3,0A3,3,0,0,1,181.09,89Zm6.64,6.85a.78.78,0,0,1,.42,1,.74.74,0,0,1-.42.41.76.76,0,0,1-.59,0L183.93,96l.24-.56.35-.86Zm10.92-24.25a.77.77,0,0,1-.42.41.76.76,0,0,1-.59,0l-3.21-1.33L195,69.3l3.21,1.33A.78.78,0,0,1,198.65,71.64Z" transform="translate(-10.93 -7.49)"/><path class="cls-1" d="M168.59,84.42a3.2,3.2,0,0,0-4.18,1.73,3.22,3.22,0,0,0-.19,1.81,3,3,0,0,1-.64-1.83,3.43,3.43,0,0,0-.09,2.79c.06.13.12.25.19.37l.24.33a3.64,3.64,0,0,0,.49.55,4,4,0,0,0,1.17.77,3.69,3.69,0,0,0,2,.23h.06a3.48,3.48,0,0,0,2.28-1.92,3.25,3.25,0,0,0,.38-.65,3.21,3.21,0,0,0-1.72-4.18Zm-2.85,2.28a1.68,1.68,0,0,1,.95-1,1.75,1.75,0,0,1,.67-.14,1.8,1.8,0,0,1,.68.14,1.77,1.77,0,0,1,1,1,1.8,1.8,0,0,1,0,1.35h0a1.74,1.74,0,0,1-.95,1,1.75,1.75,0,0,1-2.3-1A1.78,1.78,0,0,1,165.74,86.7Z" transform="translate(-10.93 -7.49)"/><path class="cls-1" d="M174.93,58.32c.07-.28.12-.53.16-.75.2-1.3-.19-1.61-1.19.32-2,3.78-3.9,9.24-6.16,14.94-.65,1.65-1.33,3.34-2,5l.14.05a5.61,5.61,0,0,1-.66,1.22c-1.51,3.67-3,7.29-4.52,10.54.62-1.23,1.29-2.55,2-3.91,2.06-4,4.4-8.4,6.45-12.69A92,92,0,0,0,174.93,58.32Z" transform="translate(-10.93 -7.49)"/><path class="cls-1" d="M173.29,89.46a1.88,1.88,0,0,1-.51-1.34,2.14,2.14,0,0,0,.3,1.45,9.9,9.9,0,0,0,.78,1.46,5.91,5.91,0,0,0,2.79,2.26,5.3,5.3,0,0,0,1.81.33,4.54,4.54,0,0,0,1.74-.38,3.9,3.9,0,0,0,.64-.35,2.74,2.74,0,0,0,1.23-1.73.68.68,0,0,0-.29-.8.38.38,0,0,0-.33,0,4.33,4.33,0,0,0-.37.27,5.31,5.31,0,0,1-1.69,1,4.46,4.46,0,0,1-2.47.24,4.75,4.75,0,0,1-.94-.27,5.11,5.11,0,0,1-1.67-1A7.14,7.14,0,0,1,173.29,89.46Z" transform="translate(-10.93 -7.49)"/><path class="cls-1" d="M57.55,78.91a4,4,0,0,0,4-3.46c0,.17.07.35.1.53a3.67,3.67,0,0,1-1,3.08A4.24,4.24,0,0,0,62.85,76a4.75,4.75,0,0,0,.07-1.08,5.32,5.32,0,0,0-.12-1A4.6,4.6,0,0,0,62,72.16,4.59,4.59,0,0,0,56,71l-.07,0a4.08,4.08,0,0,0,1.58,7.85Zm-1-6.52a2.64,2.64,0,1,1-1.43,3.45A2.64,2.64,0,0,1,56.53,72.39Z" transform="translate(-10.93 -7.49)"/><path class="cls-1" d="M50.94,90.48a3,3,0,0,0,0-2.32l-2.63-6.33L51,80.73a8.81,8.81,0,0,0,6.57,2.94l.5,0,1.17,2.8-5.47,2.28,13.9,33.44L72,120.35l5.48,10.45v.14h.06l.38.72,1.12-.47,6.74,14.46,2-.83-5.49-15,1.12-.47-3.83-12.16L84,115.38,70.07,81.94l-5.46,2.27L63.44,81.4a8.62,8.62,0,0,0,2.27-3.2A8.84,8.84,0,0,0,57,66L55.8,63l1.41-.59a1.79,1.79,0,0,0-1.38-3.31l-8.22,3.42h0A1.79,1.79,0,0,0,48.3,66a1.87,1.87,0,0,0,.69-.13l1.41-.59,1.24,3a8.82,8.82,0,0,0-2.92,7.08l-2.66,1.1L40,61.89l5.6-2.33a1.78,1.78,0,0,0,1.48.82,1.77,1.77,0,0,0,1.66-1.1,1.81,1.81,0,0,0,0-1.37l-1.13-2.72a1.79,1.79,0,0,0-3.4,1.07l-5.59,2.32-.27-.64a3,3,0,0,0-4-1.64L17,63.56a3,3,0,0,0-1.64,4l.18.44-3.2,1.33h0a2.21,2.21,0,0,0,.85,4.25,2.29,2.29,0,0,0,.84-.17l3.21-1.33L26,93.23l-3.2,1.33a2.21,2.21,0,0,0-1.19,2.89,2.17,2.17,0,0,0,1.19,1.19,2.19,2.19,0,0,0,1.69,0l3.21-1.33.18.44a3,3,0,0,0,1.58,1.61h0l.05,0a3.07,3.07,0,0,0,2.33,0L49.3,92.13A3,3,0,0,0,50.94,90.48Zm29.45,40.15.58-.24,2.54,6.91Zm-67-58.58a.76.76,0,0,1-.59,0,.77.77,0,0,1-.42-.41.78.78,0,0,1,.42-1L16,69.3l.6,1.42Zm10.5,25.26a.76.76,0,0,1-.59,0,.74.74,0,0,1-.42-.41.77.77,0,0,1,.42-1l3.2-1.33.6,1.42Zm33.49-4.59c.9,2.53,2.36,5.89,3.95,9.44s3.27,7.3,4.48,10.68a48.79,48.79,0,0,1,1.58,5.08L55.91,90.2C56.36,90.92,56.87,91.77,57.42,92.72Zm24.23,35.83-1.78.74c-1.36-2.47-3.36-7.74-4.28-9.93,0-.15-.07-.32-.09-.46l.31-.12,2.44-1Zm-2.5-12.72-3.21,1.34c-.79-1.4-1.81-3.44-3-5.67-1.33-3.34-2.75-6.85-4.17-10.28L62.6,86.6l3.2-1.33c1.82,3.2,4.62,9.12,6.52,13.49-1.5-3.76-3.25-8.62-4.48-12.45,2.38,5,5.64,12.25,8.73,19.31,1.28,3.47,2.54,7.13,3.37,9.89l-.79.32Zm2.94-1.22-.59.25c-1.25-2.18-3-5.72-4.61-9.18-3-7.64-6.08-15.68-8.22-21.6l.62-.26ZM63.28,84.76l-.59.25-1.4.58a8.33,8.33,0,0,0-.19-2.68,9.85,9.85,0,0,0,1.16-.61ZM53.21,64.09l1.26-.52,1.11,2.65a8.45,8.45,0,0,0-1.43.45c-.22.09-.42.19-.62.29A8.86,8.86,0,0,0,53.21,64.09Zm-4.78.43a.35.35,0,0,1-.46-.19.35.35,0,0,1,.19-.46l8.22-3.42a.36.36,0,0,1,.47.19.35.35,0,0,1-.19.46ZM50.7,72a7.4,7.4,0,1,1,9.68,9.66h0a7.08,7.08,0,0,1-2.71-.17,7.88,7.88,0,0,1-1.86-.75,6.15,6.15,0,0,1-1.56-1.31,12,12,0,0,1-2.11-3.51c-.5-1.3-.92-2.86-.21-4.2A4,4,0,0,0,51,73.82a8.25,8.25,0,0,0,0,2.48,8.67,8.67,0,0,0,1.66,4.07A7.36,7.36,0,0,1,50.7,72Zm-1.32,6.22a8.8,8.8,0,0,0,.69,1.33l-1.71.71a10.58,10.58,0,0,1-.31-1.15c-.11-.59-.17-1.3-.3-1.83l1.18-.48A8.07,8.07,0,0,0,49.38,78.22ZM45.84,55.55a.35.35,0,0,1,.46.19l1.13,2.72a.35.35,0,0,1,0,.27.34.34,0,0,1-.19.19.35.35,0,0,1-.27,0,.32.32,0,0,1-.19-.19l-.3-.71-.83-2A.36.36,0,0,1,45.84,55.55Zm-6.65,4.36,5.56-2.31.19.45.08.2-5.56,2.31L39.24,60ZM22.94,71.21l-2-4.85L33.58,61.1l2,4.85ZM48.75,90.8,32.11,97.72c-.5-1.24-1.14-2.91-1.89-4.83a3.11,3.11,0,0,1-1.29-1.71.78.78,0,0,1,0-.59.39.39,0,0,1,.27-.21c.21,0,.49.15.71.29A5.29,5.29,0,0,0,34,92a4.92,4.92,0,0,0,1.1-.32,4.44,4.44,0,0,0,1.73-5.46,4.44,4.44,0,0,0-8.53,1.93c-1.26-3.14-2.64-6.53-4-9.76L22.78,74.5l0,0c1.79,2.65,4.42,8.17,4.62,8.09s-1.89-5.92-2.49-9C25.8,75,26.84,77,27.57,78.65a57.36,57.36,0,0,1-1.92-5.82C27.27,72,29.16,71,31,70.15l.17-.09a35.1,35.1,0,0,1,3.73,8.19c-.72-2.74-1.89-6.33-2.72-8.69,1.26-.65,2.4-1.26,3.28-1.76l1.15-.7.9-.38-3.11-7.5L19.1,65.56c-.17-.42-.31-.77-.43-1,0,0,0-.07,0-.1L35,57.63a1.66,1.66,0,0,1,.61-.12l.3,0c-.31-1.54.41-1.09,1.25.39,1.79,3.14,3.75,8.69,6.08,14.57.7,1.76,1.42,3.56,2.15,5.35l-.15.05a5.52,5.52,0,0,0,.68,1.26c1.54,3.75,3.09,7.39,4.5,10.5q-1-1.93-2-4l1.26,3a1.64,1.64,0,0,1,0,1.23A1.58,1.58,0,0,1,48.75,90.8ZM31.6,85.1A3,3,0,1,1,30,89,3,3,0,0,1,31.6,85.1Z" transform="translate(-10.93 -7.49)"/><path class="cls-1" d="M42.08,73.37c2,4.13,4.22,8.35,6.27,12.3q1,2.06,2,4c-1.41-3.11-3-6.75-4.5-10.5a5.52,5.52,0,0,1-.68-1.26l.15-.05c-.73-1.79-1.45-3.59-2.15-5.35-2.33-5.88-4.29-11.43-6.08-14.57-.84-1.48-1.56-1.93-1.25-.39.05.22.11.48.2.79A104.32,104.32,0,0,0,42.08,73.37Z" transform="translate(-10.93 -7.49)"/><path class="cls-1" d="M34.54,93.23A5.9,5.9,0,0,0,37.21,91,9.49,9.49,0,0,0,38,89.58a2.27,2.27,0,0,0,.31-1.46,1.91,1.91,0,0,1-.51,1.33,7.71,7.71,0,0,1-1,1.18,5.11,5.11,0,0,1-1.61,1A4.92,4.92,0,0,1,34,92a5.29,5.29,0,0,1-4.11-1.28c-.22-.14-.5-.34-.71-.29a.39.39,0,0,0-.27.21.78.78,0,0,0,0,.59,3.11,3.11,0,0,0,1.29,1.71,4.08,4.08,0,0,0,.83.43A4.74,4.74,0,0,0,34.54,93.23Z" transform="translate(-10.93 -7.49)"/><path class="cls-1" d="M46.84,88a3.15,3.15,0,0,0-.18-1.82,3.19,3.19,0,0,0-1.73-1.73,3.16,3.16,0,0,0-2.45,0,3.19,3.19,0,0,0-1.72,4.18h0a3.07,3.07,0,0,0,.38.66,3.46,3.46,0,0,0,2.28,1.92h0a3.68,3.68,0,0,0,2-.24,3.83,3.83,0,0,0,1.22-.81,3.39,3.39,0,0,0,.48-.54,2.92,2.92,0,0,0,.41-.7,3.45,3.45,0,0,0-.1-2.76A3.09,3.09,0,0,1,46.84,88ZM42.08,86.7a1.76,1.76,0,0,1,2.3-1,1.71,1.71,0,0,1,.95,1,1.77,1.77,0,0,1-.95,2.3,1.76,1.76,0,0,1-2.3-2.3Z" transform="translate(-10.93 -7.49)"/><path class="cls-1" d="M82.18,86.22a14.85,14.85,0,0,1,6,5,24,24,0,0,1,2.48,4.25c.36.81.71,1.64,1,2.56s.61,1.8.9,2.74c1.13,3.81,1.93,8.09,2.79,12.53A109.93,109.93,0,0,0,98,124.62c-.23.21-.45.41-.67.63a11.49,11.49,0,0,0-3.21,5.5,5.83,5.83,0,0,0-.15.9l-.07.45c0,.22,0,.35,0,.52a8,8,0,0,0,.22,2,7.61,7.61,0,0,0,1.58,3.15,5.24,5.24,0,0,0,2.41,1.69,6.37,6.37,0,0,0,2.66.35,8.73,8.73,0,0,0,4.8-2.13l.07.06a8.7,8.7,0,0,0,5,2.08,6.65,6.65,0,0,0,2.56-.42,5.26,5.26,0,0,0,2.34-1.69,7.89,7.89,0,0,0,1.53-3.08,8,8,0,0,0,.21-1.91c0-.17,0-.29,0-.51l-.06-.44c0-.3-.06-.59-.14-.89a11.46,11.46,0,0,0-3.13-5.48c-.25-.26-.51-.49-.76-.73A122.15,122.15,0,0,0,116,111.86a105.2,105.2,0,0,1,2.93-12.46c.3-.94.61-1.75,1-2.68l.51-1.19c.19-.39.37-.77.56-1.15a22.16,22.16,0,0,1,2.49-3.88,15.19,15.19,0,0,1,5.4-4.37c.94-.46,1.74-.71,2.32-.95s1-.38,1.07-.57-.13-.36-.7-.5a6.27,6.27,0,0,0-2.95.18,13.59,13.59,0,0,0-6.87,4.86,24.11,24.11,0,0,0-2.87,4.66c-.42.89-.82,1.83-1.16,2.77s-.68,2-1,3c-2.22,7.43-2.9,16-5,23.85a65.25,65.25,0,0,0-6.13-4,58,58,0,0,1,6.06,4.25c-.19.7-.38,1.41-.6,2.11a24.59,24.59,0,0,1-5.45,9.87,19,19,0,0,1-3.28-4.56,34.69,34.69,0,0,1-2.48-6.27c-.11-.38-.2-.77-.31-1.16a58.59,58.59,0,0,1,6.06-4.24,69.58,69.58,0,0,0-6.13,4c-1.08-4-1.79-8.19-2.51-12.27a94.35,94.35,0,0,0-3-13c-.31-1-.7-2-1-2.85-.21-.46-.41-.92-.61-1.37s-.43-.85-.64-1.27a20.83,20.83,0,0,0-2.9-4.19,12.42,12.42,0,0,0-6.23-4,6.66,6.66,0,0,0-2.58-.17c-.62.13-1,.31-1.09.48s.12.37.69.55A27.92,27.92,0,0,1,82.18,86.22Zm27.71,46.12a36.13,36.13,0,0,0,2.82-6.53c.09-.28.18-.57.26-.85.21.2.42.4.62.62a14.65,14.65,0,0,1,1.75,2.35,10.33,10.33,0,0,1,1.16,3,5.71,5.71,0,0,1,.12.87l0,.46c0,.08,0,.26,0,.39a7,7,0,0,1-.23,1.65,6.45,6.45,0,0,1-1.46,2.64,4.24,4.24,0,0,1-2.17,1.34,5.78,5.78,0,0,1-2.41.16,8,8,0,0,1-3.77-1.78A20.38,20.38,0,0,0,109.89,132.34ZM98.7,126.8c.39,1.1.82,2.17,1.3,3.21.23.54.48,1,.75,1.55s.51.94.82,1.42a19.1,19.1,0,0,0,2.86,3.67,7.92,7.92,0,0,1-4,1.81A5.08,5.08,0,0,1,96,136.89a6.43,6.43,0,0,1-1.42-2.59,6.74,6.74,0,0,1-.23-1.62v-.38l.05-.45a8,8,0,0,1,.11-.87,11.5,11.5,0,0,1,2.84-5.31c.23-.25.47-.49.71-.72C98.28,125.57,98.48,126.18,98.7,126.8Z" transform="translate(-10.93 -7.49)"/><path class="cls-1" d="M109.66,98.55c.49-2.11.39-4.86,1.53-7.83a11.24,11.24,0,0,1,2.64-4.12c1.23-1.18,2.82-2.3,3.52-3.78a5.21,5.21,0,0,1-1.85,1.55c-.75.4-1.58.71-2.45,1.13a12.4,12.4,0,0,0-4.67,3.85,11.17,11.17,0,0,0-2.16,5.39,6.46,6.46,0,0,0,1,4.44C108,100.11,109.48,100.09,109.66,98.55Z" transform="translate(-10.93 -7.49)"/><path class="cls-1" d="M97.24,86.63a11.26,11.26,0,0,1,2.69,4.26c1.15,3.08.94,5.82,1.62,7.69.28,1.21,1.54,1.91,2.45.65,1.57-2.57,1-6.91-1.46-10.06A12.48,12.48,0,0,0,98,85.51c-.86-.41-1.67-.71-2.41-1.11a5.16,5.16,0,0,1-1.88-1.57C94.37,84.27,96,85.42,97.24,86.63Z" transform="translate(-10.93 -7.49)"/><path class="cls-1" d="M168.33,120a13.22,13.22,0,0,1-1.78-.76c.22-.52.45-1,.64-1.55a32.53,32.53,0,0,0,2-12.43,10.61,10.61,0,0,0-.59-3.14,5.77,5.77,0,0,0-.94-1.63,5.47,5.47,0,0,0-.74-.7l-.48-.32a3.61,3.61,0,0,0-.39-.19,5,5,0,0,0-3.89,0,5.67,5.67,0,0,0-1.57,1,6.79,6.79,0,0,0-1.21,1.34,9.57,9.57,0,0,0-1.32,3c-.06.24-.12.44-.17.7l-.14.82c-.06.52-.11,1-.12,1.56a13.66,13.66,0,0,0,1.27,6,12.55,12.55,0,0,0,1.61,2.62,11.19,11.19,0,0,0,1,1.17c.37.32.66.64,1.1,1s.73.52,1.1.75a36.14,36.14,0,0,1-3.54,7,34.42,34.42,0,0,1-16.68,13.68,35.07,35.07,0,0,0,18-12.05,36.36,36.36,0,0,0,4.59-7.44,15.76,15.76,0,0,0,1.91.62,20.37,20.37,0,0,0,11.19-.67A19.55,19.55,0,0,1,168.33,120Zm-4.74-2.79a11.17,11.17,0,0,1-2.94-4.56,11.81,11.81,0,0,1-.56-5.25,11,11,0,0,1,.23-1.24,11.23,11.23,0,0,1,.38-1.24,6.27,6.27,0,0,1,1.16-2,2.94,2.94,0,0,1,1.57-1,1.86,1.86,0,0,1,1.49.19,2.27,2.27,0,0,1,.8,1.22,7.74,7.74,0,0,1,.32,2.07,34.25,34.25,0,0,1-1.8,12.32A8.34,8.34,0,0,1,163.59,117.18Z" transform="translate(-10.93 -7.49)"/><path class="cls-1" d="M169.89,127a10.24,10.24,0,0,0-4.48,3.85,14.46,14.46,0,0,0-2.33,6.65,16.85,16.85,0,0,0,.94,7.16,20.07,20.07,0,0,0,3.24,5.75,13.83,13.83,0,0,1-1.92-6.05,15.61,15.61,0,0,1,.85-6.46,21.64,21.64,0,0,1,2.68-5.1c1-1.43,1.92-2.63,2.52-3.76S171.8,126.28,169.89,127Z" transform="translate(-10.93 -7.49)"/><path class="cls-1" d="M67.55,139.8a33.94,33.94,0,0,1-16.36-13.25,37.61,37.61,0,0,1-3.83-7.44,12.71,12.71,0,0,0,4.94-5.75,13.74,13.74,0,0,0,1.13-6.2,13.13,13.13,0,0,0-.19-1.6,12.58,12.58,0,0,0-.37-1.53,9,9,0,0,0-1.51-3,5.37,5.37,0,0,0-6.7-1.64,5.16,5.16,0,0,0-2.26,2.89,10.58,10.58,0,0,0-.5,2.9,32.55,32.55,0,0,0,2.6,14,13.84,13.84,0,0,1-1.73.74,19.56,19.56,0,0,1-10.91.3,20.14,20.14,0,0,0,11.16.67,14.34,14.34,0,0,0,2-.62A36,36,0,0,0,67.55,139.8Zm-21-23A34.27,34.27,0,0,1,45,105.39a7.89,7.89,0,0,1,.37-2.2,1.91,1.91,0,0,1,1-1.2,2.09,2.09,0,0,1,1.53,0,2.67,2.67,0,0,1,.83.46,3.93,3.93,0,0,1,.7.71,7,7,0,0,1,1,2.08c.07.22.15.46.2.66l.14.58a12.73,12.73,0,0,1,.19,1.26,11.93,11.93,0,0,1-.68,5.11,11.53,11.53,0,0,1-1.19,2.35,11.2,11.2,0,0,1-.76,1c-.33.33-.65.74-1,1s-.36.3-.54.44C46.76,117.37,46.64,117.08,46.54,116.76Z" transform="translate(-10.93 -7.49)"/><path class="cls-1" d="M45.43,130.49a8.77,8.77,0,0,0-4.33-3.41c-1.55-.41-2.6.57-1.52,2,.81,1.19,1.81,2.46,2.8,3.91a21.18,21.18,0,0,1,2.58,5,15.53,15.53,0,0,1,.78,6.27,13.58,13.58,0,0,1-1.93,6,19.82,19.82,0,0,0,3.26-5.76,16.5,16.5,0,0,0,.89-7.42A14.41,14.41,0,0,0,45.43,130.49Z" transform="translate(-10.93 -7.49)"/><path class="cls-1" d="M62.17,148.31h0a.41.41,0,0,1,0-.19v0l0,0a.36.36,0,0,1,.07-.1l0,0,0,0,0,0,4.85-3.52H50.64l4.83,10.06a.55.55,0,0,1,0,.47l-4.83,10.05H62.17Z" transform="translate(-10.93 -7.49)"/><polygon class="cls-1" points="53.45 140.28 57.44 140.28 57.44 137.39 53.45 140.28"/><polygon class="cls-1" points="57.98 141.36 52.33 141.36 52.33 157.99 52.33 161.94 136.89 161.94 136.89 157.99 136.89 141.36 131.23 141.36 57.98 141.36"/><path class="cls-1" d="M148.67,147.87l0,0,0,0,0,0a.36.36,0,0,1,.07.1l0,0v0a.58.58,0,0,1,0,.19h0v16.62h11.52l-4.82-10.05a.55.55,0,0,1,0-.47l4.82-10.06H143.83Z" transform="translate(-10.93 -7.49)"/><polygon class="cls-1" points="131.77 137.39 131.77 140.28 135.76 140.28 131.77 137.39"/><path class="cls-1" d="M170.2,36.15a.86.86,0,0,0,.75,0,2.3,2.3,0,0,1,.38-.15,2.25,2.25,0,0,0,.42-.24,6.06,6.06,0,0,1,1.66-.7,5.43,5.43,0,0,1,.9-.17c.11,0,.29,0,.34,0h.23a5.42,5.42,0,0,1,.57,0,29.94,29.94,0,0,1,5.94,1.38c.59.15,1.21.3,1.85.4l.48.08H184l.22,0,.45,0,.52,0a12.45,12.45,0,0,0,3.79-.52,14.23,14.23,0,0,0,6-3.47,10.75,10.75,0,0,1-6.2,2.14,12.27,12.27,0,0,1-6.48-1.74c-2-1.07-4.42-2.34-7.06-2.33a7.22,7.22,0,0,0-1,.07l-.41.06c-.21,0-.33.08-.5.12a5.85,5.85,0,0,0-1.68.75,4.74,4.74,0,0,0-1.94,2.41,2.1,2.1,0,0,0,0,1.26A1.07,1.07,0,0,0,170.2,36.15Z" transform="translate(-10.93 -7.49)"/><path class="cls-1" d="M26,36.81c.37,0,.66,0,1-.06s.69-.09,1-.15c.66-.12,1.3-.28,1.9-.45a24.83,24.83,0,0,1,5.95-1.32,7.26,7.26,0,0,1,3.54.82,4.31,4.31,0,0,0,.79.31,1.48,1.48,0,0,0,.8.14.84.84,0,0,0,.6-.45,1,1,0,0,0,.09-.6,2.39,2.39,0,0,0-.19-.83,5.21,5.21,0,0,0-2.36-2.54A6.29,6.29,0,0,0,37.3,31L36.89,31a3.37,3.37,0,0,0-.52-.05,7.87,7.87,0,0,0-1,0c-2.62.15-4.85,1.43-6.82,2.45A11.93,11.93,0,0,1,22.3,35a10.65,10.65,0,0,1-6.18-2.16,14.11,14.11,0,0,0,6,3.5A12.68,12.68,0,0,0,26,36.81Z" transform="translate(-10.93 -7.49)"/><path class="cls-1" d="M60.73,7.94c.4.07.58,1.61.9,3.61.12.71.55,1.16,1,1.16.3.23.45.45.45.64a11,11,0,0,0-.71,2.39v.06c0,.15.47,1,.78,2.13a16.09,16.09,0,0,0,1,3.41,3.58,3.58,0,0,1,.45,1.23,8.8,8.8,0,0,0-.32,1.74V25h.19a4.1,4.1,0,0,0,1-1.61A16.13,16.13,0,0,0,66.85,21a1.72,1.72,0,0,0,.39-1,3.91,3.91,0,0,1-.26-1.1,2.5,2.5,0,0,1,1-1.42V16.9s0-.07-.07-.07a8.48,8.48,0,0,1,1.49-2.38A3.92,3.92,0,0,1,70.46,13c.44-.82.83-1.23,1.16-1.23h.13a.43.43,0,0,1,.26.39,2.74,2.74,0,0,0-.13.77V13h.26a18.5,18.5,0,0,0,2.19-3.48A1.06,1.06,0,0,1,75,9.1H75c.09,0,.22.3.38.9a17.18,17.18,0,0,1-1.67,3.8,6.23,6.23,0,0,0-1,2.39v.26c.17.92.26,1.41.26,1.48a7.93,7.93,0,0,1-1.48,3A6.79,6.79,0,0,0,71,22.83a3,3,0,0,0-1,1.67l.06.13a10.89,10.89,0,0,1-1,1.68,7.81,7.81,0,0,1-.84,1.48c0,.3-.42.79-1.28,1.48a.91.91,0,0,0-.2.58v.32c-.34,0-.73.82-1.16,2.45a32.44,32.44,0,0,0-2.7,7,41.18,41.18,0,0,1-2,4.84c-.16.94-.44,1.42-.84,1.42v-.07a20,20,0,0,0,.52-2.38h-.2a20.71,20.71,0,0,1-.71,2.19c-.22.44-.65,2-1.29,3.54-.51,1.26-1.37,3.39-2.12,5.22-.62,1.52-1.29,2.58-1.29,2.91h-.07v-.2c.73-2.28,1.38-4.4,1.94-6.38a28.86,28.86,0,0,1,1-4.06v-.26h-.13a15.07,15.07,0,0,0-1.41,2.9c-1.21,2.37-1.81,4-1.81,5,0,0-.13.19-.26.58H54v-.07a13.1,13.1,0,0,1,.83-3q.14-.72,1.23-4a15,15,0,0,1,.84-1.94,15.28,15.28,0,0,1,.77-3.28v-.2h-.07a6,6,0,0,0-.58,1.29H57l-.13-.06c.09-.52.32-1.46.71-2.84a11.6,11.6,0,0,1,1.22-4.51,15.83,15.83,0,0,0,1.49-3.29v-.71a13,13,0,0,0-.78-3.35c-.34-.11-.51-.45-.51-1l.06-.64a22,22,0,0,1-.64-3.48c0-1,.06-1.52.06-1.55,0-.39-.17-1.05-.38-2q.06-.81.06-.84A10.83,10.83,0,0,1,58,17.54v-.77a17.72,17.72,0,0,1,.19-1.87l-.26-2.26v-.19A1.63,1.63,0,0,1,59.05,11C59.6,9,60.27,7.86,60.73,7.94Zm-6,49.5h.07v.13c-.09.64-.17,1-.26,1l-.06-.12v-.13A6.66,6.66,0,0,1,54.73,57.44Zm3-15.73V42h.06c.09,0,.13,0,.13-.13v-.13Z" transform="translate(-10.93 -7.49)"/><path class="cls-1" d="M86.78,10.1c.48.06.71.17.71.32s-1.11.21-2.12.58a1.27,1.27,0,0,0-.65.45l.13.07c.37,0,1.08-.1,1.93-.07,1.08,0,1.74.28,1.74.45V12c-1.89.3-3.56.62-5,1v.26l.45.07h.77c.09,0,.13.05.13.12v.07c0,.15-1,.49-3,1a3.24,3.24,0,0,1-1.48.64c0,.23-.37.51-1,.84-.16,0,0,1-.33,1.81-.17.52-.64,1-.64,1.16v.38a25.84,25.84,0,0,1-.84,6.06l-.9,5.35v1.61l-.64,3a9.78,9.78,0,0,1-.65,3v.39h.26c.22-.13,1.76,0,3.54-.39A12.32,12.32,0,0,1,80.73,38h.32c.06,0,.13.06.19.19v.13a9.28,9.28,0,0,0-1.48.84l-.26.32V40c0,.3-.39.52-1.16.65Q73.71,41.9,73.7,43a8.29,8.29,0,0,0-.9,3.42,1.13,1.13,0,0,1-.65.39,3.2,3.2,0,0,1-.26-1H71.7a28.31,28.31,0,0,1-.9,3l-.26.19h-.06c-.21,0-.44-.51-.45-1.29a17.74,17.74,0,0,1,.12-1.87v-.19a4.23,4.23,0,0,1-.51.13h-.07c-.22,0-.35-.7-.38-1.93l-.32-.07h-.13l-1,.19a1.23,1.23,0,0,0-.58-.25h-.13a28.92,28.92,0,0,1-4.12.77c-.27,0-.44-.19-.52-.58a21.17,21.17,0,0,1,3.42-1.61c0-.77.25-1.16.77-1.16,2.06-.79,3.09-1.47,3.09-2.06.56-2.28.79-4.1,1-5.1s.82-3.63,1.68-8.12v-.06a6,6,0,0,0-.46-1v-.07a24.8,24.8,0,0,0,1.29-5.48c-.07-.91-.55-1.48-1.16-1.48H71.7a11.56,11.56,0,0,0-2,.84,3.56,3.56,0,0,1-.58.06,1.52,1.52,0,0,1-.25-.32v-.06A5.14,5.14,0,0,1,69.7,17v-.25a2.42,2.42,0,0,1-.25-1c0-.19.49-.49,1.48-.9.19,0,.57-.4,1.09-.78A45.69,45.69,0,0,1,76.79,12a3.41,3.41,0,0,1,2.13-.91,5.38,5.38,0,0,1,1.93-.64h.07v.06c0,.08-.17.27-.52.58v.13h.2a29.3,29.3,0,0,1,3.8-.64S85.24,10.36,86.78,10.1Z" transform="translate(-10.93 -7.49)"/><path class="cls-1" d="M96.26,10.15q1.11,0,1.35.51c0,.17.2.28.58.32l.9-.06c.43.15.65.28.65.39v.38A5.84,5.84,0,0,1,96.9,13.5c-.47.2-.71.67-.71,1.42a1.6,1.6,0,0,0,.07.19c.16.68-.84,1.55-2.52,1.93a2.06,2.06,0,0,0-.77,1.1,26.82,26.82,0,0,0-2.9,2.64,20.75,20.75,0,0,1-1.87,1.48,5,5,0,0,1-1.61,2.26,2,2,0,0,0-1,1.61c0,.51.34.84.71.84h.19A23.52,23.52,0,0,1,91,26.32l3.22-.83a5.71,5.71,0,0,1,2.71-1c.48,0,1,.36,1.61,1.09a4,4,0,0,1,1.87.71,2.07,2.07,0,0,1,.84,1.55,7.58,7.58,0,0,0-.71,1.55,3.22,3.22,0,0,1-1.29,2.45A53,53,0,0,1,95.42,36a30.14,30.14,0,0,1-2.9,2.64c0,.14-.43.53-1.29,1.16l-1.35,1.42a3,3,0,0,1-1.1.52A41,41,0,0,0,85,44.18h-.25v-.07q.78-.78,5.28-4.7v-.07a38.92,38.92,0,0,0-3.93,2.71,23.68,23.68,0,0,0-2,1.42q-.65,0-4.32,2.51a18,18,0,0,1-4.77,1.55L71.83,48a.55.55,0,0,0-.19-.06v-.13A29.53,29.53,0,0,0,75.31,47c.63-.24,2.49-1.48,5.35-3v-.13h-.13a24.78,24.78,0,0,1-4.45,1.49c-.08-.11-.12-.17-.12-.2a8.56,8.56,0,0,1,1.8-.77c.06-.1.92-.36,1.87-1,.78-.5,1.89-1.42,3.22-2.19l.26-.32v-.13h-.19a6.65,6.65,0,0,1-2.52,1l-.06-.13v-.13a10.81,10.81,0,0,0,2.25-1.67c.62,0,1.86-.86,3.74-2.58a2.33,2.33,0,0,0,.39-.51l-.13-.07a4.67,4.67,0,0,1-1.87.84h-.06v-.13a15.75,15.75,0,0,1,3-2.32,3.82,3.82,0,0,1,1-1c.39-.93,1.49-1.87,3.29-2.84.6-.5.9-.89.9-1.16v-.13c0-.13-.17-.19-.38-.19H92.2A6.48,6.48,0,0,0,89.43,31a10.93,10.93,0,0,0-3.61,1.42,4.2,4.2,0,0,0-2.52,1,3,3,0,0,1-2.51,1H80.6c-1.92,0-3-.32-3.36-1a5.88,5.88,0,0,1-.32-.9,6.53,6.53,0,0,0,.2-1.35c0-.26-.33-.73-1-1.42A2.74,2.74,0,0,1,76,29V28.9c0-1.1,1.12-2.87,3.35-5.28q.33-.27,3.87-4.77a8.3,8.3,0,0,0,1.48-2c1.66-1.57,3.3-2.94,4.71-4.13a8.5,8.5,0,0,1,3-1.93,7.64,7.64,0,0,1,.83-.13h.07a1.51,1.51,0,0,0,.9.39,6,6,0,0,0,1.42-.78Z" transform="translate(-10.93 -7.49)"/><path class="cls-1" d="M108.31,7.49c.69,0,1,.13,1,.38,0,1.14.23,1.8.58,1.94h.13l1-.32c.28,0,.47.34.58,1l-.07.13a1.86,1.86,0,0,0,1.1,1.86,1.85,1.85,0,0,1,.19.78,2.06,2.06,0,0,0-.45,1.16,7.76,7.76,0,0,0,.13,1.87,11.44,11.44,0,0,0-.19,1.93c0,3,.06,4.79.06,5.29a2.89,2.89,0,0,0,.07.38,1.55,1.55,0,0,0-.13.71v.07a1.2,1.2,0,0,0,.32.64v.07l-.13.58q0,.45.06,1.86l.13.07h.13a10.2,10.2,0,0,1,4.51-1.35h.78c.08,0,.13.05.13.12a10.43,10.43,0,0,1-1.81,1.36l-.26.38v.26a.43.43,0,0,0,.39.26V29c0,.48-1.16,1.14-3.48,2a9.93,9.93,0,0,0-.39,3.16c0,.7.07,1.17.07,1.29l-.07.58a5.87,5.87,0,0,1,.26,1.48V38h-.13a1.25,1.25,0,0,1-.51-.9h-.13c-.09.47-.13.73-.13.77a22.34,22.34,0,0,0,.26,3c0,.46-.07.71-.07.78a12.45,12.45,0,0,1,.2,1.29l-.07.32c-.08,1.44-.13,2.3-.13,2.58v.32c0,.24.07,1.14.2,2.71,0,.34-.1.51-.2.51h-.06c-.3,0-.58-1.5-.84-4.51l-.13-.06h-.06v.06a4.68,4.68,0,0,0,.06.84,15.38,15.38,0,0,0-.13,1.8h.07a4.45,4.45,0,0,0-.13,1.36v3.35a5.69,5.69,0,0,1-.2.84c0,.12.09.62.26,1.48,0,.38-.09.58-.19.58h-.13a17.82,17.82,0,0,1-.77-4.9,3.66,3.66,0,0,0,.06-.58v-.39a23.55,23.55,0,0,0-.26-4.57h-.13a3.09,3.09,0,0,0-.12.77v1.16c-.05.64-.18,1-.39,1h-.07c-.08,0-.12,0-.12-.13-.22-2.41-.33-3.8-.33-4.19a12.74,12.74,0,0,0,.2-1.35,6.46,6.46,0,0,0-.2-1.29h-.13a2.53,2.53,0,0,0-.12.58,3.63,3.63,0,0,0,.06.64,4.88,4.88,0,0,0-.13,1.23v1.22a4.13,4.13,0,0,1-.19,1H108q-.13-.24-.45-7.22c-.05,0-.07-.11-.07-.32,0-1,.07-1.71.07-2.19a4.49,4.49,0,0,0-.13-.58,5.93,5.93,0,0,0,.06-.84l-.13-.06H107a16.4,16.4,0,0,1-2.52,1c-.35,0-1,1.79-1.93,5.35a31.52,31.52,0,0,0-1.1,3.55c-.08,0-.17.13-.25.38H101s0-.18-.06-.38a29.28,29.28,0,0,1,.71-3.8h-.2c-.34,1-.86,3.14-1.8,6-.55,1.72-1.2,3.44-1.68,5-.22.39-.37.58-.45.58l-.13-.39c.09-.67.56-3.08,1.42-7.21h-.19a19.46,19.46,0,0,0-1,2.57h-.2l-.12-.45c.47-2.24.85-3.88,1.16-4.9v-.38h-.07c-.35.73-.59,1.09-.71,1.09h-.06l-.07-.32a45.55,45.55,0,0,1,1.1-4.58V37.2h-.07a15.34,15.34,0,0,0-3.28.9C95.06,38,95,38,95,37.91v-.07a3.18,3.18,0,0,1,1.48-.9v-.13h-.39a33.45,33.45,0,0,0-4.06.78,1.67,1.67,0,0,1-1.09.32h-.07v-.19a15.17,15.17,0,0,1,3.81-1.87,10.47,10.47,0,0,1,1.93-1l.06-.13v-.06c-.32,0-.49-.07-.51-.2v-.06a34.73,34.73,0,0,1,4.12-2.19c.2-.49.33-1.57.71-2.65.45-1.25,1-2.22,1-2.57v-.78c0-.38.64-1.53,1.1-3s1-4.41,2.06-8c.29-.72.65-2.31,1.23-4.51S107.64,7.49,108.31,7.49Zm-2.77,22.3v.45h.58a3.49,3.49,0,0,0,1.55-.84V27c0-1.25-.18-1.92-.39-2h-.13a3.85,3.85,0,0,0-.84,2.65A9.75,9.75,0,0,0,105.54,29.79Z" transform="translate(-10.93 -7.49)"/><path class="cls-1" d="M130.58,10.18c.23,0,.35.21.39.64a4.13,4.13,0,0,0-.39,2.19v.13c0,.53-.75,1.15-2.26,1.87a5.57,5.57,0,0,0-.71,1.81,3.11,3.11,0,0,1-1.48,1,32.68,32.68,0,0,1-3,3.29,7.08,7.08,0,0,0-1.29,1.81l.07.32c-.1,0-.16.11-.2.32l.33.13a5.71,5.71,0,0,0,2.38-.52h.13a7.65,7.65,0,0,1,.9.13c.2,0,1.72-.41,4.58-1.22.69-.05,1.1-.07,1.22-.07a.43.43,0,0,0,.2.07v.45h.38A14.87,14.87,0,0,1,135,22l3.87-.84a.53.53,0,0,0,.26.06v.13q0,.64-4.71,1.81v.13h-.45c-.08,0-.13.05-.13.13l.13.06h.26a9.89,9.89,0,0,1,2.71-.39c.72,0,1.16.13,1.16.26a16.37,16.37,0,0,1-2.65.84c-.52.18-1.39.63-2.45,1a.73.73,0,0,1-.12.19c0,.12.21.22.64.32v.19a8.83,8.83,0,0,1-1.8.78c-.33.43-.55,1.14-.84,1.61s-.54,1-.78,1.55-.34,1.83-.71,2.57A15.32,15.32,0,0,0,127.61,36a28.87,28.87,0,0,0-2.19,7.09c-.47,2-1.29,4.45-1.29,6.64q0,.6-.9,6.57c0,.16.07.68.2,1.55l-.07.32h-.19a43.74,43.74,0,0,1-.26-5.67.05.05,0,0,1-.06-.06.58.58,0,0,0,.06-.26v-.45l-.06-.33h-.13c0,.32-.22,1.93-.65,4.84a26.83,26.83,0,0,1-.58,4.83V63.8c0,.09,0,.13-.13.13a10.54,10.54,0,0,1-.45-2.51c0-.6.07-1.12.07-1.55V58.78c.08-1,.12-1.49.12-1.55v-.32l-.06-.39a6.86,6.86,0,0,0,.32-1.87c.09-1.44-.06-2.91-.06-4v-.51c0-.09,0-.13-.13-.13-.13,1.17-.59,2.51-.77,3.61-.27,1.6-.13,3-.26,3.22H120c0-.26-.08-.38-.13-.38l.06-.13v-.39c0-.56.09-1.2.07-1.74s-.13-1.08-.13-1.48a26.84,26.84,0,0,1,.71-5.35,16.76,16.76,0,0,0,.45-3h-.13a14,14,0,0,0-.71,2.9,13.57,13.57,0,0,1-.64,2.32,2.16,2.16,0,0,1-.26-1,27.4,27.4,0,0,1,1.16-6.7,37.45,37.45,0,0,0,1.1-3.87,13.69,13.69,0,0,0,.64-1.67V36l-.32-.06a8.8,8.8,0,0,0-3.1,2.19c0,.22-1.16.61-3.48,1.16l-.32.06q-2.33,0-3.67-3.67,0-.82-.39-4.32V31c0-.48.8-1.72,2.39-3.74,0-.3,1.12-1.22,2.45-2.71,1.57-1.78,3.42-4.07,4.64-5.67,1.63-2.14,2.43-3.95,2.64-4.13.23,0,.58-.4,1-1.22A9.36,9.36,0,0,0,126.13,11a1.63,1.63,0,0,1,1.1-.39c0,.14.23.38.71.71a13.17,13.17,0,0,1,2.58-1.16ZM116,33.45v.25c0,.06.11.16.33.33h.32c.24,0,.75-.64,1.54-1.55a10.49,10.49,0,0,1,3.23-2.26,2.19,2.19,0,0,0,1-.9c.07-.37-1-.47-1.48-.71a1,1,0,0,1-.39-.71c0-.49.06-.9.06-1.16a.78.78,0,0,0-.38-.13h-.07c-.23,0-.61.49-1.16,1.29A25.41,25.41,0,0,0,117,31.77,2.91,2.91,0,0,0,116,33.45Z" transform="translate(-10.93 -7.49)"/><path class="cls-1" d="M93.89,55.31c.54,0,.87.13,1,.38s.15.2.43.23l.65,0c.32.11.47.2.47.28v.28a4.3,4.3,0,0,1-2.06,1.31,1,1,0,0,0-.52,1s0,.09,0,.14c.12.49-.61,1.13-1.83,1.41-.19.08-.37.34-.56.8a18.65,18.65,0,0,0-2.11,1.92A15.69,15.69,0,0,1,88,64.13a3.64,3.64,0,0,1-1.17,1.64,1.42,1.42,0,0,0-.75,1.17c0,.37.25.61.51.61h.15a16.07,16.07,0,0,1,3.32-.47l2.35-.61a4.11,4.11,0,0,1,2-.7c.35,0,.74.26,1.17.79a2.87,2.87,0,0,1,1.36.52,1.49,1.49,0,0,1,.61,1.12A5.73,5.73,0,0,0,97,69.33a2.32,2.32,0,0,1-.94,1.78,34.05,34.05,0,0,1-2.81,3A21.72,21.72,0,0,1,91.17,76c0,.1-.31.39-.94.85l-1,1a2.29,2.29,0,0,1-.8.37c-1,.57-1.88,1.17-2.72,1.78h-.18v0q.57-.58,3.84-3.43v0a26.93,26.93,0,0,0-2.86,2,14.88,14.88,0,0,0-1.45,1,12,12,0,0,0-3.14,1.83,13.73,13.73,0,0,1-3.47,1.12l-2.35.33a.34.34,0,0,0-.14,0v-.09a21.55,21.55,0,0,0,2.68-.56c.45-.18,1.81-1.08,3.89-2.21v-.09h-.1a18.37,18.37,0,0,1-3.23,1.08,1,1,0,0,1-.1-.14,6.32,6.32,0,0,1,1.32-.57c0-.07.67-.26,1.36-.7s1.37-1,2.34-1.59l.19-.24v-.09h-.14a4.67,4.67,0,0,1-1.83.75l0-.09v-.1A7.81,7.81,0,0,0,84,76.92c.45,0,1.35-.62,2.72-1.87a1.53,1.53,0,0,0,.28-.38l-.09,0a3.52,3.52,0,0,1-1.36.61h0v-.1a12,12,0,0,1,2.21-1.69,2.66,2.66,0,0,1,.7-.75,5.05,5.05,0,0,1,2.39-2.06q.66-.56.66-.84v-.1c0-.09-.13-.14-.29-.14h-.18a4.81,4.81,0,0,0-2,.94,8,8,0,0,0-2.62,1,3.07,3.07,0,0,0-1.83.71,2.22,2.22,0,0,1-1.83.7H82.5c-1.39,0-2.2-.24-2.44-.7a3.93,3.93,0,0,1-.23-.66,4.93,4.93,0,0,0,.14-1c0-.18-.24-.53-.7-1a1.84,1.84,0,0,1-.1-.56v0q0-1.2,2.44-3.84c.16-.12,1.09-1.28,2.81-3.47a6,6,0,0,0,1.08-1.45c1.2-1.14,2.4-2.14,3.42-3a6.33,6.33,0,0,1,2.2-1.41c.27,0,.49-.09.61-.09h0a1.09,1.09,0,0,0,.66.28,4.75,4.75,0,0,0,1-.56Z" transform="translate(-10.93 -7.49)"/><path class="cls-1" d="M110.77,48.39l.09,0h.61l.09,0v0c0,.16-.64.18-1.45.38a2.8,2.8,0,0,0-1.17.52v0h.7c.31,0,.47,0,.47-.09l.23,0h.1A17.76,17.76,0,0,0,113,49c0,.09,0,.14.09.14h.19V48.9a6.8,6.8,0,0,1,1-.23v0a.72.72,0,0,1,.38-.1l.32.05v0c0,.07-.18.16-.56.28,0,0,0,0,0,0l0-.09v-.1h0c-.06,0-.39.07-1,.19v0l.09.14c-.07,0-1.15.31-3.23.94v.14h.23l2.16-.24,3.19-.75c.54,0,1,.05,1.31.05a.21.21,0,0,1,.23.19,17.33,17.33,0,0,1-2.76.51,22.4,22.4,0,0,0-4.08,1.17.38.38,0,0,0-.19,0,8.43,8.43,0,0,1-1.31.42v.09q1.14-.09,1.83-.09c.72,0,1.08,0,1.08.14-.21.26-1.26.46-3.14.61-.32,0-.5.08-.57.19v0q0,.21,1.5.42V53h-.18c-.1,0-.46,0-1.08.14-.2,0-.53,0-.94-.05a18.64,18.64,0,0,0-2.25.38,2.94,2.94,0,0,0-1.12.47c-.38.17-.85.32-.85.7v.09a.38.38,0,0,0,0,.19,2.76,2.76,0,0,0-.47,1.64c-.07,1.14-.16,1.83-.47,1.83A26.51,26.51,0,0,0,100.55,64a12.4,12.4,0,0,0-.52,2.77,34.15,34.15,0,0,0-1.26,4.87,36.26,36.26,0,0,1-1.13,5.53l-.19.14h0c0-.06,0-.09,0-.09,0-.22.08-1.2.23-3v-.1h0a15.3,15.3,0,0,0-.43,1.78,13.16,13.16,0,0,0-.56,2.91c-.37,1.16-.46,2.57-.7,3.56s-.53,2.6-.7,3.71a.35.35,0,0,1-.33.28,9.74,9.74,0,0,1-.14-1.88v-.56c0-.26.08-.78.09-1.41a4.72,4.72,0,0,0,0-.75A13.64,13.64,0,0,0,95.11,79h0a4.79,4.79,0,0,0-.28,1.22s-.17.28-.19.71a5,5,0,0,0,0,.75q-1,4.77-1.27,6.84h-.09c-.1,0-.16-.2-.19-.61v-.19c.07-.45.1-.68.1-.7s0-.24,0-.52c.12-.84.23-2.2.33-4.07a1.94,1.94,0,0,0,.09-.75c0-.1,0-.39-.09-.85a8.78,8.78,0,0,1,.42-1.31l0-.47,0-.33H93.8c0,.1-.21.78-.61,2a6.77,6.77,0,0,1-.47,2c-.29.89-.31,1.64-.38,1.64h0c-.06,0-.11-.1-.14-.28.13,0,.11-1.33.42-3.33s.8-3.67,1-4.78a23.87,23.87,0,0,1,.71-2.86V73h0a10.67,10.67,0,0,0-.75,2.25,8.56,8.56,0,0,1-.56,1.6s0,0,0,0h-.09v0a33.2,33.2,0,0,1,.89-4.6c.14-.48.19-1.67.51-3s.85-2.64,1.08-3.79a10.86,10.86,0,0,0,.89-2.67,7.9,7.9,0,0,0,.94-2.11c.16-.29.32-1.15.65-2.25a10.1,10.1,0,0,0,.57-2.82v-.18s-.07-.11-.19-.19h-.24l-.75.14-.28-.05a2,2,0,0,0-1.45.42h-.28c-.16,0-.62.1-1.27.14-.33,0-.61-.4-.79-.56a1.61,1.61,0,0,0-.8-.19,1.77,1.77,0,0,0-.42.1A14.46,14.46,0,0,1,90,54.81c-.06,0-.09-.09-.09-.28a1.13,1.13,0,0,1,1.17-.7c.28,0,.42-.16.42-.47,0-.53.69-.84,1.27-1.18.41-.24.75-.65.89-.65a3.55,3.55,0,0,1,.65-.19c.1,0,.14,0,.14,0,.32,0,.55,0,.71,0h.89a7.39,7.39,0,0,0,1.59-.7,8.35,8.35,0,0,0,1.5-.33c.59-.12,3-.33,6.75-1a3.21,3.21,0,0,0,1.73-.52h.66A9.14,9.14,0,0,0,110.77,48.39ZM109,50.67v0h.14a.08.08,0,0,0,.09-.09v-.05h-.14Q109,50.6,109,50.67Zm5.67-.14,0,.1a.38.38,0,0,0-.19,0v-.09A.39.39,0,0,0,114.68,50.53Z" transform="translate(-10.93 -7.49)"/><path class="cls-1" d="M118.27,50.54h0a.38.38,0,0,0,0,.19c-.13.35-.38,1.34-.75,3q-2.3,7.16-3,10.27v.14h0a6.89,6.89,0,0,0,.89-2.2,12.06,12.06,0,0,0,1.12-3.52,11.71,11.71,0,0,0,.61-1.59h0l.09,0c-.4,2.15-1,4.49-1.64,6.89a34.61,34.61,0,0,1-1.17,4v.09h.14a1.09,1.09,0,0,1,.38-.51h0l.1,0c-.88,2.78-1.32,4.71-1.55,5.39a9.33,9.33,0,0,1-.56,1.64,5.85,5.85,0,0,0-.75,2,8.3,8.3,0,0,0-.75,2.34,4.9,4.9,0,0,1-1.5,2A6.51,6.51,0,0,1,107,81.9a2.74,2.74,0,0,1-1.55-.65,4,4,0,0,1-1.17-2A5,5,0,0,0,103,77.4a6.11,6.11,0,0,1-.19-1.73,14.3,14.3,0,0,1-.65-4,12.74,12.74,0,0,1,.23-2,10.86,10.86,0,0,1,0-1.36c.06-.88.34-2.81.47-5.48a1.27,1.27,0,0,0,.24-.66V61h0c.07,0,.13.12.15.33a2.79,2.79,0,0,1,0,.47,17.89,17.89,0,0,1,.09,1.87V65h.19c.16-3,.37-5.48.66-7.31l0-.19h.19c.06.26.14.81.23,1.64h0c.11,0,.21-.67.42-1.83a3.76,3.76,0,0,1,.94-2.06h.19a3,3,0,0,0,.42.7c.66.11,1,.19,1,.24v.14c-.18.58-.28.89-.28.93v.19c0,.27.28.65.85,1.13a1.37,1.37,0,0,1,.23.75,6.06,6.06,0,0,1-.7,1,4,4,0,0,0,.47.84v.19c0,.22-.25.62-.75,1.22v.65A11,11,0,0,1,107,65c0,.17-.11,1.12-.33,2.86l.23.84a50.12,50.12,0,0,0-.65,5c-.07.53-.19,1-.19,1.31v.57c0,1.17.25,1.9.7,2.2H107a1.91,1.91,0,0,0,.89-1.13c.27-.87.66-2.09,1.22-3.51a9.88,9.88,0,0,1,.56-2,11.4,11.4,0,0,1,.23-1.31c.68-1.74,1-3.15,1.18-3.75a22.74,22.74,0,0,0,.61-2.49A5.06,5.06,0,0,1,112.78,61a.09.09,0,0,1,.09.1v0a19.61,19.61,0,0,0-.65,2.77h0c.14,0,.41-.66.79-2a5.31,5.31,0,0,0,.89-2.15,5.08,5.08,0,0,0,.66-1.83c.16-.57.53-1.47.8-2.53.12-.19.2-.29.23-.29l0,.1v0c-.14.87-.27,1.51-.38,1.92a5.07,5.07,0,0,1-.23.7h0v-.47h0c-.07,0-.18.36-.32,1.08h0c.08,0,.16-.16.24-.47h0v.14a26.4,26.4,0,0,1-.84,2.72V61h0a13.7,13.7,0,0,0,1.17-2.81c.62-1.75,1.45-4,2.48-6.65A1.92,1.92,0,0,1,118.27,50.54Zm-4.46,15.52a2.82,2.82,0,0,0-.33.8v0h0a1,1,0,0,0,.38-.79Z" transform="translate(-10.93 -7.49)"/><path class="cls-1" d="M122,56.19c1.06.06,1.59.21,1.59.42.13,0,.34.27.61.75a2.67,2.67,0,0,1,1.5,1.13c.06.28.37.58.94.89a6.53,6.53,0,0,1,1.73,2.3l-.05.42a4.73,4.73,0,0,1,.38,1.36v.33a13,13,0,0,1-.42,2.39,6.49,6.49,0,0,1,0,1.12,6.81,6.81,0,0,1-.93,3,18.71,18.71,0,0,1-1.78,2.53c0,.34-.76,1.1-2.21,2.3-.22.47-.42.7-.61.7s-.31.24-.65.71c-.24.24-1.42.9-3,2.06-1.14.87-1.86,1.55-2.11,1.64q-.12-.33-.18-.33h0A50.41,50.41,0,0,0,112.7,83a5,5,0,0,0-.94.61l-.09,0a17.67,17.67,0,0,1,2.9-2.91.39.39,0,0,1,.05-.14,0,0,0,0,1-.05,0,19.71,19.71,0,0,0-3.79,2.91,5.27,5.27,0,0,0-1.88,1.22l-.42.19a.61.61,0,0,1-.09-.14c1.18-1.11,2.07-1.86,2.57-2.25a39,39,0,0,0,3.05-3c.75-.47,1.14-.85,1.17-1.13h0A20.78,20.78,0,0,0,112.89,80c-.41.32-1.25.78-2,1.46a3.68,3.68,0,0,0-.7.42h0a.08.08,0,0,1-.09-.09,18.13,18.13,0,0,1,2.57-2.21A7.86,7.86,0,0,1,114,78.27l.09-.14V78H114a4.08,4.08,0,0,0-1.5,1,.52.52,0,0,1-.23.09V79a16,16,0,0,1,2.58-2.48c.27,0,.61-.44.79-1.18a24.69,24.69,0,0,1,.66-2.39,1.93,1.93,0,0,1,.33-1.22,5.35,5.35,0,0,1,.37-1.82c0-.32.18-1.5.52-3.57a3.29,3.29,0,0,1,.75-2,16.4,16.4,0,0,1,1-4.88v-.37c0-.07,0-.1-.09-.1h-.57a5.37,5.37,0,0,0-1.4.66,3.48,3.48,0,0,1-1.13.19h-.14v-.1a.5.5,0,0,0,.14-.33l-2.39.19h-1.31a5.06,5.06,0,0,0-.66.09l0-.09a3.47,3.47,0,0,1,1-.19,13.67,13.67,0,0,1,2.2-.75c.32,0,.55.05.71.05.75-.21,1.12-.37,1.12-.47s-.18-.13-.56-.19a15.58,15.58,0,0,1-2.16.24l-.23-.05a2.59,2.59,0,0,1-.47.05h-.37c-.07,0-.1,0-.1-.1v0a2.88,2.88,0,0,1,.75-.14h1.17c.48-.15,1.34-.16,2.16-.33a8.51,8.51,0,0,1,1.64-.28h.14a.09.09,0,0,0,.1-.1c0-.13-.34-.22-1-.23-.21,0-.33,0-.33.09a.33.33,0,0,0-.14,0,10.73,10.73,0,0,1-1.36.18c-.48,0-.84-.14-.84-.23a5.69,5.69,0,0,1,1.64-.28c.22-.06.94,0,1.73-.19a9.19,9.19,0,0,1,1.93-.42,5.88,5.88,0,0,1,.7.09A6.92,6.92,0,0,1,122,56.19Zm-.1,3.8a4.64,4.64,0,0,0-.23,1.12l0,.33c-.53,2.56-.77,4.31-.9,5-.16.94-.28,2.7-.6,4.26a12.21,12.21,0,0,0-.43,2.25l.1,0q.48,0,1.68-1.17a2.88,2.88,0,0,0,1.65-1.17,12.6,12.6,0,0,0,1.07-1.88,7.05,7.05,0,0,0,1.83-4.73,6.26,6.26,0,0,0-.7-1.5c-.31-.66-.53-1.43-.94-1.69a5.06,5.06,0,0,0-2.39-.89Z" transform="translate(-10.93 -7.49)"/><path class="cls-1" d="M139.76,55.28c.34,0,.51.12.51.23s-.8.16-1.54.42a1,1,0,0,0-.47.33l.09.05c.27,0,.79-.07,1.41-.05.78,0,1.26.21,1.26.33v0c-1.37.22-2.59.45-3.65.7v.19l.32,0h.57a.08.08,0,0,1,.09.09v0a6.7,6.7,0,0,1-2.2.75,2.51,2.51,0,0,1-1.08.46c0,.17-.27.37-.75.61-.12,0,0,.72-.23,1.32-.13.37-.47.73-.47.84V62a19.3,19.3,0,0,1-.61,4.41l-.66,3.89v1.17l-.47,2.2a7,7,0,0,1-.47,2.21v.28h.19c.17-.1,1.28,0,2.58-.28a8,8,0,0,1,1.17-.28h.24s.09,0,.14.14v.09a6.92,6.92,0,0,0-1.08.61l-.19.23V77c0,.22-.28.37-.84.47-2.25.6-3.38,1.18-3.38,1.73a6,6,0,0,0-.65,2.49.89.89,0,0,1-.47.28,1.91,1.91,0,0,1-.19-.71h-.14a19.27,19.27,0,0,1-.66,2.21l-.19.14h0c-.15,0-.32-.37-.33-.94s.09-1.18.09-1.36V81.2l-.37.09h-.05c-.16,0-.26-.5-.28-1.4l-.23,0h-.1l-.7.14a1,1,0,0,0-.42-.19h-.1a20.21,20.21,0,0,1-3,.57c-.19,0-.32-.14-.37-.43a16.11,16.11,0,0,1,2.48-1.17q0-.84.57-.84,2.25-.86,2.25-1.5c.4-1.66.57-3,.7-3.7s.59-2.64,1.22-5.91v0a5.65,5.65,0,0,0-.33-.75v0a18.8,18.8,0,0,0,.94-4c-.06-.66-.41-1.08-.85-1.08h-.23a8.5,8.5,0,0,0-1.45.61,2.83,2.83,0,0,1-.43.05,1.58,1.58,0,0,1-.18-.23v0a3.73,3.73,0,0,1,.61-1v-.18a1.56,1.56,0,0,1-.19-.71c0-.14.36-.36,1.08-.65.14,0,.42-.29.79-.57a33.89,33.89,0,0,1,3.47-1.54A2.46,2.46,0,0,1,134,56a4,4,0,0,1,1.4-.47h.05v.05s-.12.19-.37.42v.1h.14a18.72,18.72,0,0,1,2.76-.47A17.06,17.06,0,0,1,139.76,55.28Z" transform="translate(-10.93 -7.49)"/><path class="cls-1" d="M142.28,56.31c.21,0,.41.14.51.14H143l.28-.05a9.59,9.59,0,0,1,1.64.28c.59.2.83.9.94,1.46,0,.12.3.32.7.51a7.32,7.32,0,0,1,.56,2.72c0,.73-.09,1.29-.09,1.6v1l-.33,1.12v.94q0,.81-1.87,4.5a7.23,7.23,0,0,1-1,2.91,17.68,17.68,0,0,1-1.18,3,1.21,1.21,0,0,1-.51,1.07l-.75,1.83h-.05l-.09,0c.25-.73.41-1.55.61-2.21a4.92,4.92,0,0,0,.28-1.36H142c-.56,1.45-1,2.62-1.45,3.52a4.8,4.8,0,0,1-2.68,2.58,6.25,6.25,0,0,1-1.22.32c-.63,0-1.71-.62-3.23-1.87a4.12,4.12,0,0,1-.47-.89c0-.27,0-.47,0-.61a9.89,9.89,0,0,1-.66-2.63l.14-1v-.09a2.62,2.62,0,0,0,0-.43.3.3,0,0,0,0-.14h.19c.09,0,.16.29.23.85h.05c.06,0,.13-.27.19-.8a7.62,7.62,0,0,0,.51-2.3,3.58,3.58,0,0,1,.61-1.36c0-.25.68-2.19,2-5.81a9.47,9.47,0,0,1,.42-2,3.29,3.29,0,0,1,.85-1.74c.16-.84.38-1.26.65-1.26a1.52,1.52,0,0,0,.75-1.18l-.05-.42a3.52,3.52,0,0,1,2-1.83A3.37,3.37,0,0,1,142.28,56.31Zm-5.21,19.55L137,76v.09c0,.31.2.47.47.47h.14a12.23,12.23,0,0,0,.75-1.41c.3-.12.49-1.18,1-2.15a17,17,0,0,0,1.74-4.32c.3-1.33.47-2.1.65-2.1h0L142,67a19.53,19.53,0,0,1,1.26-3.52,7.79,7.79,0,0,0,.42-2.67c.07,0,.1-.23.1-.7v-.38c-.17-.81-.46-1.21-.89-1.21h-.24c-.51.33-1,1.38-1.55,3.14a12.3,12.3,0,0,0-.56,1.78c-.14.43-.44,1.15-.7,2.06a1,1,0,0,0-.56,1,6.42,6.42,0,0,0-.85,2.91,5,5,0,0,0-.75,2.06,24.31,24.31,0,0,1-.61,3.66ZM144,72.29a1.9,1.9,0,0,0-.09.43H144l.09-.33v-.1Zm.29-.89-.05.1v.09h.14V71.5C144.34,71.43,144.31,71.4,144.25,71.4Z" transform="translate(-10.93 -7.49)"/><path class="cls-2" d="M74.32,156.27a3.91,3.91,0,0,1-1.21,2.7,2.6,2.6,0,0,1-.66.43,2,2,0,0,1-.63.2A7.7,7.7,0,0,1,74,161.26a1,1,0,0,1,.25.59,1.83,1.83,0,0,1-.51,1,.44.44,0,0,1,.07.21c0,.52-1,.78-3,.78-.42,0-.88,0-1.37-.05s-.75-.13-.78-.31a1.33,1.33,0,0,1,.1-.69.28.28,0,0,1,.27-.2l.44.06c.1,0,.21.1.32.27a.72.72,0,0,0,.56.29l.58,0a5.84,5.84,0,0,0,2.21-.33.54.54,0,0,0,.39-.5,1.23,1.23,0,0,0-.46-.84,8.1,8.1,0,0,0-1.17-.9,5.22,5.22,0,0,0-1.32-.77c-.38,0-.67-.07-.67-.23s.2-.23.59-.52a.45.45,0,0,1,.27-.1.65.65,0,0,1,.32.1l.31.17a1.78,1.78,0,0,0,1.24-.69,4.19,4.19,0,0,0,.61-1,3.48,3.48,0,0,0,.33-1.31c0-.24-.07-.39-.23-.46a1.47,1.47,0,0,0-.54,0c-.17,0-.47.07-.89.16a6.68,6.68,0,0,0-1,.31c-.38,1.32-.88,2.74-1.49,4.28a18.22,18.22,0,0,1-1.14,2.55,1.41,1.41,0,0,1-.29.34,2.15,2.15,0,0,1-.6.17c-.21,0-.32,0-.32-.05a.33.33,0,0,1,0-.14,4.94,4.94,0,0,0,.38-1.5q0-.31.06-.36l.56-.2c.12,0,.19,0,.22.15a20.52,20.52,0,0,0,1.16-2.75,16.5,16.5,0,0,0,.64-2.15,6.2,6.2,0,0,0-2.44,1.52.72.72,0,0,0-.16.46,2.23,2.23,0,0,0,.1.54,1,1,0,0,1,0,.15q0,.12-.09.12a.36.36,0,0,1-.25-.15,2.16,2.16,0,0,1-.67-1.13.76.76,0,0,1,.23-.4,6.55,6.55,0,0,1,1.52-1.15,10.28,10.28,0,0,1,1.94-.94,2.15,2.15,0,0,0,0-.53c0-.12,0-.18.11-.18a.3.3,0,0,1,.18.09c.19.19.28.32.25.4a8.42,8.42,0,0,1,2-.39,1,1,0,0,1,.65.22,2.35,2.35,0,0,1,.38.55.44.44,0,0,1,.33.1A.5.5,0,0,1,74.32,156.27Z" transform="translate(-10.93 -7.49)"/><path class="cls-2" d="M79.28,159.65a6.24,6.24,0,0,1-.28,1.49,5.35,5.35,0,0,1-1.23,2.29,1.29,1.29,0,0,1-.94.43,4.33,4.33,0,0,1-.51-.08,2,2,0,0,1-1-.38,1.14,1.14,0,0,1-.4-.94,6.41,6.41,0,0,1,.49-1.88,5.71,5.71,0,0,1,1.06-1.89c.17-.19.31-.28.42-.28s.4.15.74.44l.57-.23a1.13,1.13,0,0,1,.34-.07c.17,0,.37.15.58.46A1,1,0,0,1,79.28,159.65Zm-.76.18c0-.28,0-.46,0-.54s-.06-.27-.17-.27l-.18,0-1,.4-.21.07s-.07,0-.11-.12a4.66,4.66,0,0,0-.72,1.3,7.69,7.69,0,0,0-.36,1.19,3.21,3.21,0,0,0-.07.65c0,.65.21,1,.63,1a1,1,0,0,0,.55-.19,3.26,3.26,0,0,0,1-1.44A6.84,6.84,0,0,0,78.52,159.83Z" transform="translate(-10.93 -7.49)"/><path class="cls-2" d="M84.46,159.18q-2.05,10.11-5.34,10.1A4,4,0,0,1,76.56,168a.31.31,0,0,1-.12-.23.16.16,0,0,1,.18-.18.27.27,0,0,1,.18.07,3.28,3.28,0,0,0,2,.88c1.83,0,3.37-2.56,4.59-7.68a13.65,13.65,0,0,1-1.94,2.61,1,1,0,0,1-.6.32,1.06,1.06,0,0,1-.59-.25,1,1,0,0,1-.61-1,5.19,5.19,0,0,1,.67-2.06,6.4,6.4,0,0,1,1.3-1.81,1.08,1.08,0,0,1,.69-.35,1,1,0,0,1,.5.19s.2.18.53.45a.22.22,0,0,1,.1.17c0,.08,0,.11-.16.11a.68.68,0,0,1-.22-.05.88.88,0,0,0-.4-.1.79.79,0,0,0-.51.19,5.21,5.21,0,0,0-1,1.32,5.32,5.32,0,0,0-.71,1.82,2,2,0,0,0,0,.39c0,.31.09.47.27.47a.61.61,0,0,0,.38-.17,7.89,7.89,0,0,0,1.58-1.87,9.27,9.27,0,0,0,1-2.08,1.9,1.9,0,0,0,.12-.64q0-.24.12-.24a1.2,1.2,0,0,1,.49.27C84.47,158.71,84.52,158.9,84.46,159.18Z" transform="translate(-10.93 -7.49)"/><path class="cls-2" d="M89.36,159.65a6.24,6.24,0,0,1-.28,1.49,5.35,5.35,0,0,1-1.23,2.29,1.29,1.29,0,0,1-.94.43,4.33,4.33,0,0,1-.51-.08,2,2,0,0,1-1-.38,1.14,1.14,0,0,1-.4-.94,6.41,6.41,0,0,1,.49-1.88,5.71,5.71,0,0,1,1.06-1.89c.17-.19.31-.28.42-.28s.4.15.74.44l.57-.23a1.13,1.13,0,0,1,.34-.07c.17,0,.37.15.58.46A1,1,0,0,1,89.36,159.65Zm-.77.18a4.23,4.23,0,0,0,0-.54c0-.18-.06-.27-.17-.27l-.18,0-1,.4-.21.07s-.07,0-.11-.12a4.42,4.42,0,0,0-.72,1.3,7.69,7.69,0,0,0-.36,1.19,3.21,3.21,0,0,0-.07.65c0,.65.21,1,.63,1a1,1,0,0,0,.55-.19,3.34,3.34,0,0,0,1-1.44A6.53,6.53,0,0,0,88.59,159.83Z" transform="translate(-10.93 -7.49)"/><path class="cls-2" d="M93.62,155.56c.13.07.19.14.19.22s0,.08-.13.08h-.17c-.17,0-.37.18-.61.53a10.59,10.59,0,0,0-.89,2c0,.09-.05.14,0,.16s.07,0,.17,0a7.92,7.92,0,0,0,1.06,0c.15,0,.23,0,.23.18s-.06.15-.18.17-.58,0-1.47.12a17.11,17.11,0,0,0-1,3.77c0,.05,0,.1,0,.14s0,.22.12.22.48-.28,1.09-.83a.31.31,0,0,1,.2-.11.1.1,0,0,1,.11.07.24.24,0,0,1-.06.18,10.24,10.24,0,0,1-1.06,1.16.62.62,0,0,1-.37.19,1.79,1.79,0,0,1-.45-.22c-.2-.09-.39-.19-.39-.38a.44.44,0,0,1,0-.1,29.24,29.24,0,0,1,1-4l-.64-.09a.13.13,0,0,1-.13-.15.16.16,0,0,1,.13-.18l.5-.14a1.75,1.75,0,0,0,.42-.19,14.6,14.6,0,0,1,1.13-2.72.63.63,0,0,1,.5-.36A1.92,1.92,0,0,1,93.62,155.56Z" transform="translate(-10.93 -7.49)"/><path class="cls-2" d="M97.7,159.44a19.89,19.89,0,0,0-.85,2.71,3.59,3.59,0,0,0,.26-.27l.21-.21a.26.26,0,0,1,.2-.12.09.09,0,0,1,.1.1.24.24,0,0,1-.06.13,5.2,5.2,0,0,0-.83,1.78c0,.17-.1.26-.18.26a1,1,0,0,1-.42-.21.49.49,0,0,1-.21-.19.62.62,0,0,1,0-.28,14.16,14.16,0,0,1,.7-2.67,16.17,16.17,0,0,1-1.58,2,8.93,8.93,0,0,1-1.27,1.2,1,1,0,0,1-.42.19.91.91,0,0,1-.37-.19.68.68,0,0,1-.36-.56,1.15,1.15,0,0,1,0-.16,5.87,5.87,0,0,1,.87-2.18,8.85,8.85,0,0,1,1.72-2.11.83.83,0,0,1,.56-.27,2.31,2.31,0,0,1,.91.6.15.15,0,0,1,.06.11c0,.07,0,.1-.14.1a.18.18,0,0,1-.1,0,.77.77,0,0,0-.76,0,6.21,6.21,0,0,0-1.39,1.54A6,6,0,0,0,93.31,163a.28.28,0,0,0,0,.09c0,.1,0,.16.13.16A.87.87,0,0,0,94,163a17.91,17.91,0,0,0,1.6-1.74,8.48,8.48,0,0,0,1.12-1.64q.18-.4.24-.57c.06-.19.12-.29.18-.29a1.31,1.31,0,0,1,.47.26c.1.08.16.14.17.2A.59.59,0,0,1,97.7,159.44Z" transform="translate(-10.93 -7.49)"/><path class="cls-2" d="M99.72,162.21c0,.06,0,.2-.14.43a12.63,12.63,0,0,0-.91,2c.1,0,.06.11-.11.21a.71.71,0,0,1-.47.12c-.07,0-.1-.06-.1-.16a6.64,6.64,0,0,1,.78-2.27.81.81,0,0,1,.3-.21C99.48,162.23,99.69,162.18,99.72,162.21Z" transform="translate(-10.93 -7.49)"/><path class="cls-2" d="M110.34,156.35a7,7,0,0,1-.74,1.91c-.13.21-.25.31-.38.31l-.18,0c-.34-.1-.51-.21-.51-.35s0-.11.14-.13a4,4,0,0,0,.7-2,1.11,1.11,0,0,0-.7-.31c-.46,0-1,.38-1.64,1.16a10.78,10.78,0,0,0-1.52,2.59,6.73,6.73,0,0,0-.64,2.6,1.12,1.12,0,0,0,.38.9.94.94,0,0,0,.62.22,1.65,1.65,0,0,0,.46-.08,6.11,6.11,0,0,0,1.49-.73,8,8,0,0,0,1.33-1.07.73.73,0,0,0,.21-.43c0-.1,0-.14.13-.14a.16.16,0,0,1,.14.11,2.53,2.53,0,0,1,.24.8.56.56,0,0,1-.18.39c-.08.07-.27.22-.57.44a7.38,7.38,0,0,1-2.43,1.25,2.52,2.52,0,0,1-.58.08,1,1,0,0,1-.83-.35c-.87-.31-1.31-.78-1.31-1.42a7.77,7.77,0,0,1,.85-3.3,11.1,11.1,0,0,1,1.8-2.69,3.1,3.1,0,0,1,1.67-1.15.91.91,0,0,1,.54.18l.63.48c0-.17.08-.26.18-.26a1.34,1.34,0,0,1,.54.28.49.49,0,0,1,.24.35A2.21,2.21,0,0,1,110.34,156.35Z" transform="translate(-10.93 -7.49)"/><path class="cls-2" d="M114.78,159.65a6.92,6.92,0,0,1-.29,1.49,5.35,5.35,0,0,1-1.23,2.29,1.27,1.27,0,0,1-.94.43,4.33,4.33,0,0,1-.51-.08,2,2,0,0,1-1-.38,1.12,1.12,0,0,1-.41-.94,6.41,6.41,0,0,1,.49-1.88,5.71,5.71,0,0,1,1.06-1.89.68.68,0,0,1,.43-.28c.15,0,.39.15.73.44l.58-.23a1,1,0,0,1,.33-.07c.17,0,.37.15.58.46A1.06,1.06,0,0,1,114.78,159.65Zm-.77.18c0-.28,0-.46,0-.54s0-.27-.17-.27l-.17,0-1,.4-.21.07s-.07,0-.1-.12a4.65,4.65,0,0,0-.73,1.3,7.69,7.69,0,0,0-.36,1.19,4.13,4.13,0,0,0-.07.65c0,.65.21,1,.63,1a1,1,0,0,0,.55-.19,3.19,3.19,0,0,0,1.05-1.44A6.55,6.55,0,0,0,114,159.83Z" transform="translate(-10.93 -7.49)"/><path class="cls-2" d="M120.58,153.81c.06.05.09.09.09.14s0,.12-.15.12a.37.37,0,0,1-.14,0,1.24,1.24,0,0,0-.46-.15q-.42,0-.93.78a19.32,19.32,0,0,0-2.58,7.27c0,.08,0,.18-.07.32.1-.1.25-.27.45-.5s.21-.19.26-.19.12.06,0,.19a4.62,4.62,0,0,0-.85,1.83c0,.15-.12.23-.19.23a.27.27,0,0,1-.14-.06l-.39-.25a.43.43,0,0,1-.13-.33,1.29,1.29,0,0,1,0-.25,33.68,33.68,0,0,1,2-6.89,8.25,8.25,0,0,1,1.65-2.78.64.64,0,0,1,.4-.17,1,1,0,0,1,.47.22C120.15,153.46,120.37,153.64,120.58,153.81Z" transform="translate(-10.93 -7.49)"/><path class="cls-2" d="M122.14,159.65a5.87,5.87,0,0,1-.29,1.49,5.25,5.25,0,0,1-1.23,2.29,1.26,1.26,0,0,1-.93.43,4.8,4.8,0,0,1-.52-.08,2,2,0,0,1-1-.38,1.11,1.11,0,0,1-.4-.94,6.41,6.41,0,0,1,.49-1.88,5.72,5.72,0,0,1,1.05-1.89c.18-.19.32-.28.43-.28a1.54,1.54,0,0,1,.74.44l.57-.23a1.13,1.13,0,0,1,.34-.07c.17,0,.36.15.58.46A1,1,0,0,1,122.14,159.65Zm-.77.18c0-.28,0-.46,0-.54s-.06-.27-.17-.27l-.18,0-1,.4-.21.07s-.07,0-.11-.12a4.42,4.42,0,0,0-.72,1.3,7.69,7.69,0,0,0-.36,1.19,3.21,3.21,0,0,0-.07.65c0,.65.21,1,.63,1a1,1,0,0,0,.55-.19,3.34,3.34,0,0,0,1-1.44A6.53,6.53,0,0,0,121.37,159.83Z" transform="translate(-10.93 -7.49)"/><path class="cls-2" d="M130.72,161.64a25.08,25.08,0,0,0-1.29,2.17l-.1.15a.46.46,0,0,1-.28,0c-.31-.08-.46-.17-.46-.25a.53.53,0,0,1,.06-.2,16.54,16.54,0,0,0,.85-2.37,7.59,7.59,0,0,0,.35-1.94c0-.14-.06-.22-.17-.22a.51.51,0,0,0-.27.12,8.78,8.78,0,0,0-1.47,1.7,11.47,11.47,0,0,0-1.53,2.85c0,.11,0,.16-.08.18a.35.35,0,0,1-.19,0,2,2,0,0,1-.44-.21.22.22,0,0,1-.1-.15s0-.09.1-.25a10.23,10.23,0,0,0,.88-4c0-.13,0-.19-.12-.19a.38.38,0,0,0-.22.1,8.06,8.06,0,0,0-1.59,2,13,13,0,0,0-1.26,2.5c-.07.2-.14.3-.22.3a1.4,1.4,0,0,1-.55-.28c-.07,0-.1-.08-.1-.12s0-.12.14-.22a10.79,10.79,0,0,0,.63-1.9,8.21,8.21,0,0,0,.34-2.25l-.34.32c-.17.14-.29.26-.37.33a.2.2,0,0,1-.15.08c-.07,0-.1,0-.1-.12a.24.24,0,0,1,.07-.18,8.42,8.42,0,0,0,.75-.87c.08-.12.16-.18.23-.18s.14.07.29.21l.33.11a.23.23,0,0,1,.14.23.41.41,0,0,1,0,.11,13,13,0,0,1-.52,2.29,11.33,11.33,0,0,1,2.2-2.87.45.45,0,0,1,.28-.12,1.34,1.34,0,0,1,.42.17,1.64,1.64,0,0,1,.37.2.57.57,0,0,1,.1.36,7.7,7.7,0,0,1-.32,2.3,15.19,15.19,0,0,1,2.37-2.91.44.44,0,0,1,.3-.13c.13,0,.32.18.49.26s.52.25.5.6a8.54,8.54,0,0,1-.7,3,5.42,5.42,0,0,0,.52-.65.25.25,0,0,1,.2-.13c.07,0,.1,0,.1.1A.29.29,0,0,1,130.72,161.64Z" transform="translate(-10.93 -7.49)"/><path class="cls-2" d="M136.77,153.81a.17.17,0,0,1,.08.13c0,.08-.06.13-.16.13a.33.33,0,0,1-.13,0,1.24,1.24,0,0,0-.46-.15c-.28,0-.59.26-.92.78a19.56,19.56,0,0,0-2.62,7.28c.47-.75.81-1.27,1-1.58a9.09,9.09,0,0,1,1.44-1.6.77.77,0,0,1,1.11-.13.76.76,0,0,1,.54.81,7.39,7.39,0,0,1-.65,2.42,5.38,5.38,0,0,1-1.23,1.82.63.63,0,0,1-.42.18c-.29,0-.69-.31-1.2-.94a.3.3,0,0,1-.09-.18c0-.07,0-.1.12-.1a.35.35,0,0,1,.22.09,1.18,1.18,0,0,0,.67.32.69.69,0,0,0,.53-.31,5.56,5.56,0,0,0,.84-1.51,5.44,5.44,0,0,0,.42-1.93c0-.22-.07-.33-.23-.33a.48.48,0,0,0-.3.13A8.9,8.9,0,0,0,133.7,161a10.14,10.14,0,0,0-1.3,2.56c-.05.15-.12.23-.19.23a.27.27,0,0,1-.14-.06l-.39-.25a.43.43,0,0,1-.13-.33,1.29,1.29,0,0,1,0-.25,34.32,34.32,0,0,1,2-6.89,8.51,8.51,0,0,1,1.66-2.78.61.61,0,0,1,.38-.17.85.85,0,0,1,.47.21Z" transform="translate(-10.93 -7.49)"/><path class="cls-2" d="M139,159.35a25.32,25.32,0,0,1-.84,2.85,4.56,4.56,0,0,0,.54-.6.12.12,0,0,1,.09-.06q.1,0,0,.18l-.56.87a5.63,5.63,0,0,0-.59,1.07.22.22,0,0,1-.22.15,1,1,0,0,1-.44-.15c-.11,0-.17-.1-.17-.13a.42.42,0,0,1,.07-.16,10.83,10.83,0,0,0,.81-2,10.25,10.25,0,0,0,.47-2c0-.19,0-.29-.06-.29s-.11,0-.21.14l-.42.37c-.15.13-.22.14-.22,0a.28.28,0,0,1,.06-.13,10,10,0,0,1,.67-.79.31.31,0,0,1,.21-.11,1.52,1.52,0,0,1,.31.14,2.09,2.09,0,0,0,.34.1.36.36,0,0,1,.16.33A1.38,1.38,0,0,1,139,159.35Zm.94-2.78a.22.22,0,0,1,.11.17c0,.12-.19.31-.58.57a1,1,0,0,1-.73.18.92.92,0,0,1-.35-.14l-.07-.08s0-.05,0-.07a.09.09,0,0,1,.08,0,9.64,9.64,0,0,0,.81-.73c.1-.11.18-.17.22-.17A1.54,1.54,0,0,1,140,156.57Z" transform="translate(-10.93 -7.49)"/><path class="cls-2" d="M144.41,159.44a19.89,19.89,0,0,0-.85,2.71l.27-.27.2-.21a.26.26,0,0,1,.2-.12c.07,0,.1,0,.1.1a.31.31,0,0,1-.05.13,5.05,5.05,0,0,0-.84,1.78c0,.17-.1.26-.18.26a1.08,1.08,0,0,1-.42-.21c-.12-.07-.19-.14-.2-.19a.5.5,0,0,1,0-.28,13.44,13.44,0,0,1,.7-2.67,16.36,16.36,0,0,1-1.59,2,8.5,8.5,0,0,1-1.26,1.2.51.51,0,0,1-.8,0,.67.67,0,0,1-.35-.56,1,1,0,0,1,0-.16,5.87,5.87,0,0,1,.87-2.18,8.85,8.85,0,0,1,1.72-2.11.87.87,0,0,1,.56-.27,2.31,2.31,0,0,1,.92.6.15.15,0,0,1,.06.11c0,.07,0,.1-.14.1a.16.16,0,0,1-.1,0,.79.79,0,0,0-.77,0,6.41,6.41,0,0,0-1.39,1.54A6.1,6.1,0,0,0,140,163v.09c0,.1,0,.16.13.16a.87.87,0,0,0,.54-.3,15.69,15.69,0,0,0,1.6-1.74,8.65,8.65,0,0,0,1.13-1.64,5.08,5.08,0,0,0,.23-.57c.06-.19.12-.29.19-.29a1.4,1.4,0,0,1,.47.26c.1.08.15.14.16.2A.59.59,0,0,1,144.41,159.44Z" transform="translate(-10.93 -7.49)"/></svg>